<?xml version="1.0" encoding="UTF-8" standalone="no"?>
<!DOCTYPE svg PUBLIC "-//W3C//DTD SVG 1.1//EN"
 "http://www.w3.org/Graphics/SVG/1.1/DTD/svg11.dtd">
<!-- Generated by graphviz version 2.47.3 (20210619.1520)
 -->
<!-- Title: dependencies Pages: 1 -->
<svg width="1174pt" height="247pt"
 viewBox="0.00 0.00 1174.00 246.80" xmlns="http://www.w3.org/2000/svg" xmlns:xlink="http://www.w3.org/1999/xlink">
<g id="graph0" class="graph" transform="scale(1 1) rotate(0) translate(4 242.8)">
<title>dependencies</title>
<polygon fill="white" stroke="transparent" points="-4,4 -4,-242.8 1170,-242.8 1170,4 -4,4"/>
<text text-anchor="middle" x="583" y="-8.2" font-family="sans-serif" font-size="14.00">dependencies</text>
<g id="clust1" class="cluster">
<title>cluster_AppModule</title>
<polygon fill="none" stroke="black" stroke-dasharray="1,5" points="8,-32.8 8,-230.8 1014,-230.8 1014,-32.8 8,-32.8"/>
</g>
<g id="clust2" class="cluster">
<title>cluster_AppModule_declarations</title>
<polygon fill="none" stroke="black" points="168,-40.8 168,-92.8 1006,-92.8 1006,-40.8 168,-40.8"/>
</g>
<g id="clust8" class="cluster">
<title>cluster_AppModule_imports</title>
<polygon fill="none" stroke="black" points="16,-40.8 16,-92.8 160,-92.8 160,-40.8 16,-40.8"/>
</g>
<g id="clust10" class="cluster">
<title>cluster_AppModule_bootstrap</title>
<polygon fill="none" stroke="black" points="800,-170.8 800,-222.8 924,-222.8 924,-170.8 800,-170.8"/>
</g>
<g id="clust18" class="cluster">
<title>cluster_AppServerModule</title>
<polygon fill="none" stroke="black" stroke-dasharray="1,5" points="1022,-170.8 1022,-222.8 1158,-222.8 1158,-170.8 1022,-170.8"/>
</g>
<!-- AppComponent -->
<g id="node1" class="node">
<title>AppComponent</title>
<polygon fill="#ffffb3" stroke="black" points="997.94,-84.8 892.06,-84.8 892.06,-48.8 997.94,-48.8 997.94,-84.8"/>
<text text-anchor="middle" x="945" y="-62.6" font-family="Times,serif" font-size="14.00">AppComponent</text>
</g>
<!-- AppModule -->
<g id="node6" class="node">
<title>AppModule</title>
<polygon fill="#8dd3c7" stroke="black" points="739.66,-149.8 736.66,-153.8 715.66,-153.8 712.66,-149.8 656.34,-149.8 656.34,-113.8 739.66,-113.8 739.66,-149.8"/>
<text text-anchor="middle" x="698" y="-127.6" font-family="Times,serif" font-size="14.00">AppModule</text>
</g>
<!-- AppComponent&#45;&gt;AppModule -->
<g id="edge1" class="edge">
<title>AppComponent&#45;&gt;AppModule</title>
<path fill="none" stroke="black" d="M904.38,-84.83C904.38,-101.2 904.38,-122.8 904.38,-122.8 904.38,-122.8 749.76,-122.8 749.76,-122.8"/>
<polygon fill="black" stroke="black" points="749.76,-119.3 739.76,-122.8 749.76,-126.3 749.76,-119.3"/>
</g>
<!-- FrequenciesBarComponent -->
<g id="node2" class="node">
<title>FrequenciesBarComponent</title>
<polygon fill="#ffffb3" stroke="black" points="874.68,-84.8 705.32,-84.8 705.32,-48.8 874.68,-48.8 874.68,-84.8"/>
<text text-anchor="middle" x="790" y="-62.6" font-family="Times,serif" font-size="14.00">FrequenciesBarComponent</text>
</g>
<!-- FrequenciesBarComponent&#45;&gt;AppModule -->
<g id="edge2" class="edge">
<title>FrequenciesBarComponent&#45;&gt;AppModule</title>
<path fill="none" stroke="black" d="M722.62,-84.91C722.62,-84.91 722.62,-103.79 722.62,-103.79"/>
<polygon fill="black" stroke="black" points="719.12,-103.79 722.62,-113.79 726.12,-103.79 719.12,-103.79"/>
</g>
<!-- HomePageComponent -->
<g id="node3" class="node">
<title>HomePageComponent</title>
<polygon fill="#ffffb3" stroke="black" points="687.26,-84.8 544.74,-84.8 544.74,-48.8 687.26,-48.8 687.26,-84.8"/>
<text text-anchor="middle" x="616" y="-62.6" font-family="Times,serif" font-size="14.00">HomePageComponent</text>
</g>
<!-- HomePageComponent&#45;&gt;AppModule -->
<g id="edge3" class="edge">
<title>HomePageComponent&#45;&gt;AppModule</title>
<path fill="none" stroke="black" d="M671.77,-84.91C671.77,-84.91 671.77,-103.79 671.77,-103.79"/>
<polygon fill="black" stroke="black" points="668.27,-103.79 671.77,-113.79 675.27,-103.79 668.27,-103.79"/>
</g>
<!-- NotFoundPageComponent -->
<g id="node4" class="node">
<title>NotFoundPageComponent</title>
<polygon fill="#ffffb3" stroke="black" points="526.82,-84.8 361.18,-84.8 361.18,-48.8 526.82,-48.8 526.82,-84.8"/>
<text text-anchor="middle" x="444" y="-62.6" font-family="Times,serif" font-size="14.00">NotFoundPageComponent</text>
</g>
<!-- NotFoundPageComponent&#45;&gt;AppModule -->
<g id="edge4" class="edge">
<title>NotFoundPageComponent&#45;&gt;AppModule</title>
<path fill="none" stroke="black" d="M444,-84.83C444,-101.2 444,-122.8 444,-122.8 444,-122.8 646.34,-122.8 646.34,-122.8"/>
<polygon fill="black" stroke="black" points="646.34,-126.3 656.34,-122.8 646.34,-119.3 646.34,-126.3"/>
</g>
<!-- SpectrumPagesComponent -->
<g id="node5" class="node">
<title>SpectrumPagesComponent</title>
<polygon fill="#ffffb3" stroke="black" points="343.64,-84.8 176.36,-84.8 176.36,-48.8 343.64,-48.8 343.64,-84.8"/>
<text text-anchor="middle" x="260" y="-62.6" font-family="Times,serif" font-size="14.00">SpectrumPagesComponent</text>
</g>
<!-- SpectrumPagesComponent&#45;&gt;AppModule -->
<g id="edge5" class="edge">
<title>SpectrumPagesComponent&#45;&gt;AppModule</title>
<path fill="none" stroke="black" d="M260,-84.91C260,-104.14 260,-131.8 260,-131.8 260,-131.8 646,-131.8 646,-131.8"/>
<polygon fill="black" stroke="black" points="646,-135.3 656,-131.8 646,-128.3 646,-135.3"/>
</g>
<!-- AppComponent  -->
<g id="node8" class="node">
<title>AppComponent </title>
<polygon fill="#80b1d3" stroke="black" points="916.44,-214.8 807.56,-214.8 807.56,-178.8 916.44,-178.8 916.44,-214.8"/>
<text text-anchor="middle" x="862" y="-192.6" font-family="Times,serif" font-size="14.00">AppComponent </text>
</g>
<!-- AppModule&#45;&gt;AppComponent  -->
<g id="edge7" class="edge">
<title>AppModule&#45;&gt;AppComponent </title>
<path fill="none" stroke="black" stroke-dasharray="1,5" d="M739.76,-140.8C781.99,-140.8 841.06,-140.8 841.06,-140.8 841.06,-140.8 841.06,-168.77 841.06,-168.77"/>
<polygon fill="black" stroke="black" points="837.56,-168.77 841.06,-178.77 844.56,-168.77 837.56,-168.77"/>
</g>
<!-- AppServerModule -->
<g id="node9" class="node">
<title>AppServerModule</title>
<polygon fill="#8dd3c7" stroke="black" points="1150.19,-214.8 1147.19,-218.8 1126.19,-218.8 1123.19,-214.8 1029.81,-214.8 1029.81,-178.8 1150.19,-178.8 1150.19,-214.8"/>
<text text-anchor="middle" x="1090" y="-192.6" font-family="Times,serif" font-size="14.00">AppServerModule</text>
</g>
<!-- AppModule&#45;&gt;AppServerModule -->
<g id="edge8" class="edge">
<title>AppModule&#45;&gt;AppServerModule</title>
<path fill="none" stroke="black" d="M739.95,-131.8C841.08,-131.8 1090,-131.8 1090,-131.8 1090,-131.8 1090,-168.69 1090,-168.69"/>
<polygon fill="black" stroke="black" points="1086.5,-168.69 1090,-178.69 1093.5,-168.69 1086.5,-168.69"/>
</g>
<!-- AppRoutingModule -->
<g id="node7" class="node">
<title>AppRoutingModule</title>
<polygon fill="#8dd3c7" stroke="black" points="152.27,-84.8 149.27,-88.8 128.27,-88.8 125.27,-84.8 23.73,-84.8 23.73,-48.8 152.27,-48.8 152.27,-84.8"/>
<text text-anchor="middle" x="88" y="-62.6" font-family="Times,serif" font-size="14.00">AppRoutingModule</text>
</g>
<!-- AppRoutingModule&#45;&gt;AppModule -->
<g id="edge6" class="edge">
<title>AppRoutingModule&#45;&gt;AppModule</title>
<path fill="none" stroke="black" d="M88,-85.09C88,-107.01 88,-140.8 88,-140.8 88,-140.8 646.07,-140.8 646.07,-140.8"/>
<polygon fill="black" stroke="black" points="646.07,-144.3 656.07,-140.8 646.07,-137.3 646.07,-144.3"/>
</g>
<!-- AppServerModule&#45;&gt;AppComponent  -->
<g id="edge9" class="edge">
<title>AppServerModule&#45;&gt;AppComponent </title>
<path fill="none" stroke="black" stroke-dasharray="1,5" d="M1029.8,-196.8C1029.8,-196.8 926.68,-196.8 926.68,-196.8"/>
<polygon fill="black" stroke="black" points="926.68,-193.3 916.68,-196.8 926.68,-200.3 926.68,-193.3"/>
</g>
</g>
</svg>
