<?xml version="1.0" encoding="UTF-8" standalone="no"?>
<!DOCTYPE svg PUBLIC "-//W3C//DTD SVG 1.1//EN"
 "http://www.w3.org/Graphics/SVG/1.1/DTD/svg11.dtd">
<!-- Generated by graphviz version 2.47.0 (20210316.0004)
 -->
<!-- Title: dependencies Pages: 1 -->
<svg width="1174pt" height="284pt"
 viewBox="0.00 0.00 1174.00 284.00" xmlns="http://www.w3.org/2000/svg" xmlns:xlink="http://www.w3.org/1999/xlink">
<g id="graph0" class="graph" transform="scale(1 1) rotate(0) translate(4 280)">
<title>dependencies</title>
<polygon fill="white" stroke="transparent" points="-4,4 -4,-280 1170,-280 1170,4 -4,4"/>
<text text-anchor="start" x="562.01" y="-42.4" font-family="sans-serif" font-weight="bold" font-size="14.00">Legend</text>
<polygon fill="#ffffb3" stroke="transparent" points="349,-10 349,-30 369,-30 369,-10 349,-10"/>
<text text-anchor="start" x="372.63" y="-15.4" font-family="sans-serif" font-size="14.00"> &#160;Declarations</text>
<polygon fill="#8dd3c7" stroke="transparent" points="462,-10 462,-30 482,-30 482,-10 462,-10"/>
<text text-anchor="start" x="485.73" y="-15.4" font-family="sans-serif" font-size="14.00"> &#160;Module</text>
<polygon fill="#80b1d3" stroke="transparent" points="548,-10 548,-30 568,-30 568,-10 548,-10"/>
<text text-anchor="start" x="571.78" y="-15.4" font-family="sans-serif" font-size="14.00"> &#160;Bootstrap</text>
<polygon fill="#fdb462" stroke="transparent" points="645,-10 645,-30 665,-30 665,-10 645,-10"/>
<text text-anchor="start" x="668.67" y="-15.4" font-family="sans-serif" font-size="14.00"> &#160;Providers</text>
<polygon fill="#fb8072" stroke="transparent" points="741,-10 741,-30 761,-30 761,-10 741,-10"/>
<text text-anchor="start" x="764.73" y="-15.4" font-family="sans-serif" font-size="14.00"> &#160;Exports</text>
<g id="clust1" class="cluster">
<title>cluster_AppModule</title>
<polygon fill="none" stroke="black" stroke-dasharray="1,5" points="8,-70 8,-268 1014,-268 1014,-70 8,-70"/>
</g>
<g id="clust2" class="cluster">
<title>cluster_AppModule_declarations</title>
<polygon fill="none" stroke="black" points="168,-78 168,-130 1006,-130 1006,-78 168,-78"/>
</g>
<g id="clust8" class="cluster">
<title>cluster_AppModule_imports</title>
<polygon fill="none" stroke="black" points="16,-78 16,-130 160,-130 160,-78 16,-78"/>
</g>
<g id="clust10" class="cluster">
<title>cluster_AppModule_bootstrap</title>
<polygon fill="none" stroke="black" points="800,-208 800,-260 924,-260 924,-208 800,-208"/>
</g>
<g id="clust18" class="cluster">
<title>cluster_AppServerModule</title>
<polygon fill="none" stroke="black" stroke-dasharray="1,5" points="1022,-208 1022,-260 1158,-260 1158,-208 1022,-208"/>
</g>
<!-- AppComponent -->
<g id="node1" class="node">
<title>AppComponent</title>
<polygon fill="#ffffb3" stroke="black" points="997.94,-122 892.06,-122 892.06,-86 997.94,-86 997.94,-122"/>
<text text-anchor="middle" x="945" y="-99.8" font-family="Times,serif" font-size="14.00">AppComponent</text>
</g>
<!-- AppModule -->
<g id="node6" class="node">
<title>AppModule</title>
<polygon fill="#8dd3c7" stroke="black" points="739.66,-187 736.66,-191 715.66,-191 712.66,-187 656.34,-187 656.34,-151 739.66,-151 739.66,-187"/>
<text text-anchor="middle" x="698" y="-164.8" font-family="Times,serif" font-size="14.00">AppModule</text>
</g>
<!-- AppComponent&#45;&gt;AppModule -->
<g id="edge1" class="edge">
<title>AppComponent&#45;&gt;AppModule</title>
<path fill="none" stroke="black" d="M904.38,-122.03C904.38,-138.4 904.38,-160 904.38,-160 904.38,-160 749.76,-160 749.76,-160"/>
<polygon fill="black" stroke="black" points="749.76,-156.5 739.76,-160 749.76,-163.5 749.76,-156.5"/>
</g>
<!-- FrequenciesBarComponent -->
<g id="node2" class="node">
<title>FrequenciesBarComponent</title>
<polygon fill="#ffffb3" stroke="black" points="874.68,-122 705.32,-122 705.32,-86 874.68,-86 874.68,-122"/>
<text text-anchor="middle" x="790" y="-99.8" font-family="Times,serif" font-size="14.00">FrequenciesBarComponent</text>
</g>
<!-- FrequenciesBarComponent&#45;&gt;AppModule -->
<g id="edge2" class="edge">
<title>FrequenciesBarComponent&#45;&gt;AppModule</title>
<path fill="none" stroke="black" d="M722.62,-122.11C722.62,-122.11 722.62,-140.99 722.62,-140.99"/>
<polygon fill="black" stroke="black" points="719.12,-140.99 722.62,-150.99 726.12,-140.99 719.12,-140.99"/>
</g>
<!-- HomePageComponent -->
<g id="node3" class="node">
<title>HomePageComponent</title>
<polygon fill="#ffffb3" stroke="black" points="687.26,-122 544.74,-122 544.74,-86 687.26,-86 687.26,-122"/>
<text text-anchor="middle" x="616" y="-99.8" font-family="Times,serif" font-size="14.00">HomePageComponent</text>
</g>
<!-- HomePageComponent&#45;&gt;AppModule -->
<g id="edge3" class="edge">
<title>HomePageComponent&#45;&gt;AppModule</title>
<path fill="none" stroke="black" d="M671.77,-122.11C671.77,-122.11 671.77,-140.99 671.77,-140.99"/>
<polygon fill="black" stroke="black" points="668.27,-140.99 671.77,-150.99 675.27,-140.99 668.27,-140.99"/>
</g>
<!-- NotFoundPageComponent -->
<g id="node4" class="node">
<title>NotFoundPageComponent</title>
<polygon fill="#ffffb3" stroke="black" points="526.82,-122 361.18,-122 361.18,-86 526.82,-86 526.82,-122"/>
<text text-anchor="middle" x="444" y="-99.8" font-family="Times,serif" font-size="14.00">NotFoundPageComponent</text>
</g>
<!-- NotFoundPageComponent&#45;&gt;AppModule -->
<g id="edge4" class="edge">
<title>NotFoundPageComponent&#45;&gt;AppModule</title>
<path fill="none" stroke="black" d="M444,-122.03C444,-138.4 444,-160 444,-160 444,-160 646.34,-160 646.34,-160"/>
<polygon fill="black" stroke="black" points="646.34,-163.5 656.34,-160 646.34,-156.5 646.34,-163.5"/>
</g>
<!-- SpectrumPagesComponent -->
<g id="node5" class="node">
<title>SpectrumPagesComponent</title>
<polygon fill="#ffffb3" stroke="black" points="343.64,-122 176.36,-122 176.36,-86 343.64,-86 343.64,-122"/>
<text text-anchor="middle" x="260" y="-99.8" font-family="Times,serif" font-size="14.00">SpectrumPagesComponent</text>
</g>
<!-- SpectrumPagesComponent&#45;&gt;AppModule -->
<g id="edge5" class="edge">
<title>SpectrumPagesComponent&#45;&gt;AppModule</title>
<path fill="none" stroke="black" d="M260,-122.11C260,-141.34 260,-169 260,-169 260,-169 646,-169 646,-169"/>
<polygon fill="black" stroke="black" points="646,-172.5 656,-169 646,-165.5 646,-172.5"/>
</g>
<!-- AppComponent  -->
<g id="node8" class="node">
<title>AppComponent </title>
<polygon fill="#80b1d3" stroke="black" points="916.44,-252 807.56,-252 807.56,-216 916.44,-216 916.44,-252"/>
<text text-anchor="middle" x="862" y="-229.8" font-family="Times,serif" font-size="14.00">AppComponent </text>
</g>
<!-- AppModule&#45;&gt;AppComponent  -->
<g id="edge7" class="edge">
<title>AppModule&#45;&gt;AppComponent </title>
<path fill="none" stroke="black" stroke-dasharray="1,5" d="M739.76,-178C781.99,-178 841.06,-178 841.06,-178 841.06,-178 841.06,-205.97 841.06,-205.97"/>
<polygon fill="black" stroke="black" points="837.56,-205.97 841.06,-215.97 844.56,-205.97 837.56,-205.97"/>
</g>
<!-- AppServerModule -->
<g id="node9" class="node">
<title>AppServerModule</title>
<polygon fill="#8dd3c7" stroke="black" points="1150.19,-252 1147.19,-256 1126.19,-256 1123.19,-252 1029.81,-252 1029.81,-216 1150.19,-216 1150.19,-252"/>
<text text-anchor="middle" x="1090" y="-229.8" font-family="Times,serif" font-size="14.00">AppServerModule</text>
</g>
<!-- AppModule&#45;&gt;AppServerModule -->
<g id="edge8" class="edge">
<title>AppModule&#45;&gt;AppServerModule</title>
<path fill="none" stroke="black" d="M739.95,-169C841.08,-169 1090,-169 1090,-169 1090,-169 1090,-205.89 1090,-205.89"/>
<polygon fill="black" stroke="black" points="1086.5,-205.89 1090,-215.89 1093.5,-205.89 1086.5,-205.89"/>
</g>
<!-- AppRoutingModule -->
<g id="node7" class="node">
<title>AppRoutingModule</title>
<polygon fill="#8dd3c7" stroke="black" points="152.27,-122 149.27,-126 128.27,-126 125.27,-122 23.73,-122 23.73,-86 152.27,-86 152.27,-122"/>
<text text-anchor="middle" x="88" y="-99.8" font-family="Times,serif" font-size="14.00">AppRoutingModule</text>
</g>
<!-- AppRoutingModule&#45;&gt;AppModule -->
<g id="edge6" class="edge">
<title>AppRoutingModule&#45;&gt;AppModule</title>
<path fill="none" stroke="black" d="M88,-122.29C88,-144.21 88,-178 88,-178 88,-178 646.07,-178 646.07,-178"/>
<polygon fill="black" stroke="black" points="646.07,-181.5 656.07,-178 646.07,-174.5 646.07,-181.5"/>
</g>
<!-- AppServerModule&#45;&gt;AppComponent  -->
<g id="edge9" class="edge">
<title>AppServerModule&#45;&gt;AppComponent </title>
<path fill="none" stroke="black" stroke-dasharray="1,5" d="M1029.8,-234C1029.8,-234 926.68,-234 926.68,-234"/>
<polygon fill="black" stroke="black" points="926.68,-230.5 916.68,-234 926.68,-237.5 926.68,-230.5"/>
</g>
</g>
</svg>
