<?xml version="1.0" encoding="UTF-8" standalone="no"?>
<!DOCTYPE svg PUBLIC "-//W3C//DTD SVG 1.1//EN"
 "http://www.w3.org/Graphics/SVG/1.1/DTD/svg11.dtd">
<!-- Generated by graphviz version 2.47.0 (20210316.0004)
 -->
<!-- Title: dependencies Pages: 1 -->
<svg width="1030pt" height="284pt"
 viewBox="0.00 0.00 1030.00 284.00" xmlns="http://www.w3.org/2000/svg" xmlns:xlink="http://www.w3.org/1999/xlink">
<g id="graph0" class="graph" transform="scale(1 1) rotate(0) translate(4 280)">
<title>dependencies</title>
<polygon fill="white" stroke="transparent" points="-4,4 -4,-280 1026,-280 1026,4 -4,4"/>
<text text-anchor="start" x="490.01" y="-42.4" font-family="sans-serif" font-weight="bold" font-size="14.00">Legend</text>
<polygon fill="#ffffb3" stroke="transparent" points="277,-10 277,-30 297,-30 297,-10 277,-10"/>
<text text-anchor="start" x="300.63" y="-15.4" font-family="sans-serif" font-size="14.00"> &#160;Declarations</text>
<polygon fill="#8dd3c7" stroke="transparent" points="390,-10 390,-30 410,-30 410,-10 390,-10"/>
<text text-anchor="start" x="413.73" y="-15.4" font-family="sans-serif" font-size="14.00"> &#160;Module</text>
<polygon fill="#80b1d3" stroke="transparent" points="476,-10 476,-30 496,-30 496,-10 476,-10"/>
<text text-anchor="start" x="499.78" y="-15.4" font-family="sans-serif" font-size="14.00"> &#160;Bootstrap</text>
<polygon fill="#fdb462" stroke="transparent" points="573,-10 573,-30 593,-30 593,-10 573,-10"/>
<text text-anchor="start" x="596.67" y="-15.4" font-family="sans-serif" font-size="14.00"> &#160;Providers</text>
<polygon fill="#fb8072" stroke="transparent" points="669,-10 669,-30 689,-30 689,-10 669,-10"/>
<text text-anchor="start" x="692.73" y="-15.4" font-family="sans-serif" font-size="14.00"> &#160;Exports</text>
<g id="clust1" class="cluster">
<title>cluster_AppModule</title>
<polygon fill="none" stroke="black" stroke-dasharray="1,5" points="8,-70 8,-268 1014,-268 1014,-70 8,-70"/>
</g>
<g id="clust8" class="cluster">
<title>cluster_AppModule_imports</title>
<polygon fill="none" stroke="black" points="862,-78 862,-130 1006,-130 1006,-78 862,-78"/>
</g>
<g id="clust2" class="cluster">
<title>cluster_AppModule_declarations</title>
<polygon fill="none" stroke="black" points="16,-78 16,-130 854,-130 854,-78 16,-78"/>
</g>
<g id="clust10" class="cluster">
<title>cluster_AppModule_bootstrap</title>
<polygon fill="none" stroke="black" points="489,-208 489,-260 613,-260 613,-208 489,-208"/>
</g>
<!-- AppComponent -->
<g id="node1" class="node">
<title>AppComponent</title>
<polygon fill="#ffffb3" stroke="black" points="845.94,-122 740.06,-122 740.06,-86 845.94,-86 845.94,-122"/>
<text text-anchor="middle" x="793" y="-99.8" font-family="Times,serif" font-size="14.00">AppComponent</text>
</g>
<!-- AppModule -->
<g id="node6" class="node">
<title>AppModule</title>
<polygon fill="#8dd3c7" stroke="black" points="592.66,-187 589.66,-191 568.66,-191 565.66,-187 509.34,-187 509.34,-151 592.66,-151 592.66,-187"/>
<text text-anchor="middle" x="551" y="-164.8" font-family="Times,serif" font-size="14.00">AppModule</text>
</g>
<!-- AppComponent&#45;&gt;AppModule -->
<g id="edge1" class="edge">
<title>AppComponent&#45;&gt;AppModule</title>
<path fill="none" stroke="black" d="M793,-122.02C793,-139.37 793,-163 793,-163 793,-163 602.88,-163 602.88,-163"/>
<polygon fill="black" stroke="black" points="602.88,-159.5 592.88,-163 602.88,-166.5 602.88,-159.5"/>
</g>
<!-- FrequenciesBarComponent -->
<g id="node2" class="node">
<title>FrequenciesBarComponent</title>
<polygon fill="#ffffb3" stroke="black" points="722.68,-122 553.32,-122 553.32,-86 722.68,-86 722.68,-122"/>
<text text-anchor="middle" x="638" y="-99.8" font-family="Times,serif" font-size="14.00">FrequenciesBarComponent</text>
</g>
<!-- FrequenciesBarComponent&#45;&gt;AppModule -->
<g id="edge2" class="edge">
<title>FrequenciesBarComponent&#45;&gt;AppModule</title>
<path fill="none" stroke="black" d="M573.12,-122.11C573.12,-122.11 573.12,-140.99 573.12,-140.99"/>
<polygon fill="black" stroke="black" points="569.62,-140.99 573.12,-150.99 576.62,-140.99 569.62,-140.99"/>
</g>
<!-- HomePageComponent -->
<g id="node3" class="node">
<title>HomePageComponent</title>
<polygon fill="#ffffb3" stroke="black" points="535.26,-122 392.74,-122 392.74,-86 535.26,-86 535.26,-122"/>
<text text-anchor="middle" x="464" y="-99.8" font-family="Times,serif" font-size="14.00">HomePageComponent</text>
</g>
<!-- HomePageComponent&#45;&gt;AppModule -->
<g id="edge3" class="edge">
<title>HomePageComponent&#45;&gt;AppModule</title>
<path fill="none" stroke="black" d="M522.27,-122.11C522.27,-122.11 522.27,-140.99 522.27,-140.99"/>
<polygon fill="black" stroke="black" points="518.77,-140.99 522.27,-150.99 525.77,-140.99 518.77,-140.99"/>
</g>
<!-- NotFoundPageComponent -->
<g id="node4" class="node">
<title>NotFoundPageComponent</title>
<polygon fill="#ffffb3" stroke="black" points="374.82,-122 209.18,-122 209.18,-86 374.82,-86 374.82,-122"/>
<text text-anchor="middle" x="292" y="-99.8" font-family="Times,serif" font-size="14.00">NotFoundPageComponent</text>
</g>
<!-- NotFoundPageComponent&#45;&gt;AppModule -->
<g id="edge4" class="edge">
<title>NotFoundPageComponent&#45;&gt;AppModule</title>
<path fill="none" stroke="black" d="M292,-122.02C292,-139.37 292,-163 292,-163 292,-163 499.1,-163 499.1,-163"/>
<polygon fill="black" stroke="black" points="499.1,-166.5 509.1,-163 499.1,-159.5 499.1,-166.5"/>
</g>
<!-- SpectrumPagesComponent -->
<g id="node5" class="node">
<title>SpectrumPagesComponent</title>
<polygon fill="#ffffb3" stroke="black" points="191.64,-122 24.36,-122 24.36,-86 191.64,-86 191.64,-122"/>
<text text-anchor="middle" x="108" y="-99.8" font-family="Times,serif" font-size="14.00">SpectrumPagesComponent</text>
</g>
<!-- SpectrumPagesComponent&#45;&gt;AppModule -->
<g id="edge5" class="edge">
<title>SpectrumPagesComponent&#45;&gt;AppModule</title>
<path fill="none" stroke="black" d="M108,-122.28C108,-143.32 108,-175 108,-175 108,-175 499.32,-175 499.32,-175"/>
<polygon fill="black" stroke="black" points="499.32,-178.5 509.32,-175 499.32,-171.5 499.32,-178.5"/>
</g>
<!-- AppComponent  -->
<g id="node8" class="node">
<title>AppComponent </title>
<polygon fill="#80b1d3" stroke="black" points="605.44,-252 496.56,-252 496.56,-216 605.44,-216 605.44,-252"/>
<text text-anchor="middle" x="551" y="-229.8" font-family="Times,serif" font-size="14.00">AppComponent </text>
</g>
<!-- AppModule&#45;&gt;AppComponent  -->
<g id="edge7" class="edge">
<title>AppModule&#45;&gt;AppComponent </title>
<path fill="none" stroke="black" stroke-dasharray="1,5" d="M551,-187.11C551,-187.11 551,-205.99 551,-205.99"/>
<polygon fill="black" stroke="black" points="547.5,-205.99 551,-215.99 554.5,-205.99 547.5,-205.99"/>
</g>
<!-- AppRoutingModule -->
<g id="node7" class="node">
<title>AppRoutingModule</title>
<polygon fill="#8dd3c7" stroke="black" points="998.27,-122 995.27,-126 974.27,-126 971.27,-122 869.73,-122 869.73,-86 998.27,-86 998.27,-122"/>
<text text-anchor="middle" x="934" y="-99.8" font-family="Times,serif" font-size="14.00">AppRoutingModule</text>
</g>
<!-- AppRoutingModule&#45;&gt;AppModule -->
<g id="edge6" class="edge">
<title>AppRoutingModule&#45;&gt;AppModule</title>
<path fill="none" stroke="black" d="M934,-122.28C934,-143.32 934,-175 934,-175 934,-175 602.72,-175 602.72,-175"/>
<polygon fill="black" stroke="black" points="602.72,-171.5 592.72,-175 602.72,-178.5 602.72,-171.5"/>
</g>
</g>
</svg>
