<?xml version="1.0" encoding="UTF-8" standalone="no"?>
<!DOCTYPE svg PUBLIC "-//W3C//DTD SVG 1.1//EN"
 "http://www.w3.org/Graphics/SVG/1.1/DTD/svg11.dtd">
<!-- Generated by graphviz version 2.47.0 (20210316.0004)
 -->
<!-- Title: dependencies Pages: 1 -->
<svg width="1030pt" height="284pt"
 viewBox="0.00 0.00 1030.00 284.00" xmlns="http://www.w3.org/2000/svg" xmlns:xlink="http://www.w3.org/1999/xlink">
<g id="graph0" class="graph" transform="scale(1 1) rotate(0) translate(4 280)">
<title>dependencies</title>
<polygon fill="white" stroke="transparent" points="-4,4 -4,-280 1026,-280 1026,4 -4,4"/>
<text text-anchor="start" x="490.01" y="-42.4" font-family="sans-serif" font-weight="bold" font-size="14.00">Legend</text>
<polygon fill="#ffffb3" stroke="transparent" points="277,-10 277,-30 297,-30 297,-10 277,-10"/>
<text text-anchor="start" x="300.63" y="-15.4" font-family="sans-serif" font-size="14.00"> &#160;Declarations</text>
<polygon fill="#8dd3c7" stroke="transparent" points="390,-10 390,-30 410,-30 410,-10 390,-10"/>
<text text-anchor="start" x="413.73" y="-15.4" font-family="sans-serif" font-size="14.00"> &#160;Module</text>
<polygon fill="#80b1d3" stroke="transparent" points="476,-10 476,-30 496,-30 496,-10 476,-10"/>
<text text-anchor="start" x="499.78" y="-15.4" font-family="sans-serif" font-size="14.00"> &#160;Bootstrap</text>
<polygon fill="#fdb462" stroke="transparent" points="573,-10 573,-30 593,-30 593,-10 573,-10"/>
<text text-anchor="start" x="596.67" y="-15.4" font-family="sans-serif" font-size="14.00"> &#160;Providers</text>
<polygon fill="#fb8072" stroke="transparent" points="669,-10 669,-30 689,-30 689,-10 669,-10"/>
<text text-anchor="start" x="692.73" y="-15.4" font-family="sans-serif" font-size="14.00"> &#160;Exports</text>
<g id="clust1" class="cluster">
<title>cluster_AppModule</title>
<polygon fill="none" stroke="black" stroke-dasharray="1,5" points="8,-70 8,-268 1014,-268 1014,-70 8,-70"/>
</g>
<g id="clust2" class="cluster">
<title>cluster_AppModule_declarations</title>
<polygon fill="none" stroke="black" points="168,-78 168,-130 1006,-130 1006,-78 168,-78"/>
</g>
<g id="clust8" class="cluster">
<title>cluster_AppModule_imports</title>
<polygon fill="none" stroke="black" points="16,-78 16,-130 160,-130 160,-78 16,-78"/>
</g>
<g id="clust10" class="cluster">
<title>cluster_AppModule_bootstrap</title>
<polygon fill="none" stroke="black" points="468,-208 468,-260 592,-260 592,-208 468,-208"/>
</g>
<!-- AppComponent -->
<g id="node1" class="node">
<title>AppComponent</title>
<polygon fill="#ffffb3" stroke="black" points="997.94,-122 892.06,-122 892.06,-86 997.94,-86 997.94,-122"/>
<text text-anchor="middle" x="945" y="-99.8" font-family="Times,serif" font-size="14.00">AppComponent</text>
</g>
<!-- AppModule -->
<g id="node6" class="node">
<title>AppModule</title>
<polygon fill="#8dd3c7" stroke="black" points="571.66,-187 568.66,-191 547.66,-191 544.66,-187 488.34,-187 488.34,-151 571.66,-151 571.66,-187"/>
<text text-anchor="middle" x="530" y="-164.8" font-family="Times,serif" font-size="14.00">AppModule</text>
</g>
<!-- AppComponent&#45;&gt;AppModule -->
<g id="edge1" class="edge">
<title>AppComponent&#45;&gt;AppModule</title>
<path fill="none" stroke="black" d="M945,-122.28C945,-143.32 945,-175 945,-175 945,-175 581.69,-175 581.69,-175"/>
<polygon fill="black" stroke="black" points="581.69,-171.5 571.69,-175 581.69,-178.5 581.69,-171.5"/>
</g>
<!-- FrequenciesBarComponent -->
<g id="node2" class="node">
<title>FrequenciesBarComponent</title>
<polygon fill="#ffffb3" stroke="black" points="874.68,-122 705.32,-122 705.32,-86 874.68,-86 874.68,-122"/>
<text text-anchor="middle" x="790" y="-99.8" font-family="Times,serif" font-size="14.00">FrequenciesBarComponent</text>
</g>
<!-- FrequenciesBarComponent&#45;&gt;AppModule -->
<g id="edge2" class="edge">
<title>FrequenciesBarComponent&#45;&gt;AppModule</title>
<path fill="none" stroke="black" d="M790,-122.02C790,-139.37 790,-163 790,-163 790,-163 581.77,-163 581.77,-163"/>
<polygon fill="black" stroke="black" points="581.77,-159.5 571.77,-163 581.77,-166.5 581.77,-159.5"/>
</g>
<!-- HomePageComponent -->
<g id="node3" class="node">
<title>HomePageComponent</title>
<polygon fill="#ffffb3" stroke="black" points="687.26,-122 544.74,-122 544.74,-86 687.26,-86 687.26,-122"/>
<text text-anchor="middle" x="616" y="-99.8" font-family="Times,serif" font-size="14.00">HomePageComponent</text>
</g>
<!-- HomePageComponent&#45;&gt;AppModule -->
<g id="edge3" class="edge">
<title>HomePageComponent&#45;&gt;AppModule</title>
<path fill="none" stroke="black" d="M558.23,-122.11C558.23,-122.11 558.23,-140.99 558.23,-140.99"/>
<polygon fill="black" stroke="black" points="554.73,-140.99 558.23,-150.99 561.73,-140.99 554.73,-140.99"/>
</g>
<!-- NotFoundPageComponent -->
<g id="node4" class="node">
<title>NotFoundPageComponent</title>
<polygon fill="#ffffb3" stroke="black" points="526.82,-122 361.18,-122 361.18,-86 526.82,-86 526.82,-122"/>
<text text-anchor="middle" x="444" y="-99.8" font-family="Times,serif" font-size="14.00">NotFoundPageComponent</text>
</g>
<!-- NotFoundPageComponent&#45;&gt;AppModule -->
<g id="edge4" class="edge">
<title>NotFoundPageComponent&#45;&gt;AppModule</title>
<path fill="none" stroke="black" d="M507.42,-122.11C507.42,-122.11 507.42,-140.99 507.42,-140.99"/>
<polygon fill="black" stroke="black" points="503.92,-140.99 507.42,-150.99 510.92,-140.99 503.92,-140.99"/>
</g>
<!-- SpectrumPagesComponent -->
<g id="node5" class="node">
<title>SpectrumPagesComponent</title>
<polygon fill="#ffffb3" stroke="black" points="343.64,-122 176.36,-122 176.36,-86 343.64,-86 343.64,-122"/>
<text text-anchor="middle" x="260" y="-99.8" font-family="Times,serif" font-size="14.00">SpectrumPagesComponent</text>
</g>
<!-- SpectrumPagesComponent&#45;&gt;AppModule -->
<g id="edge5" class="edge">
<title>SpectrumPagesComponent&#45;&gt;AppModule</title>
<path fill="none" stroke="black" d="M260,-122.02C260,-139.37 260,-163 260,-163 260,-163 478.11,-163 478.11,-163"/>
<polygon fill="black" stroke="black" points="478.11,-166.5 488.11,-163 478.11,-159.5 478.11,-166.5"/>
</g>
<!-- AppComponent  -->
<g id="node8" class="node">
<title>AppComponent </title>
<polygon fill="#80b1d3" stroke="black" points="584.44,-252 475.56,-252 475.56,-216 584.44,-216 584.44,-252"/>
<text text-anchor="middle" x="530" y="-229.8" font-family="Times,serif" font-size="14.00">AppComponent </text>
</g>
<!-- AppModule&#45;&gt;AppComponent  -->
<g id="edge7" class="edge">
<title>AppModule&#45;&gt;AppComponent </title>
<path fill="none" stroke="black" stroke-dasharray="1,5" d="M530,-187.11C530,-187.11 530,-205.99 530,-205.99"/>
<polygon fill="black" stroke="black" points="526.5,-205.99 530,-215.99 533.5,-205.99 526.5,-205.99"/>
</g>
<!-- AppRoutingModule -->
<g id="node7" class="node">
<title>AppRoutingModule</title>
<polygon fill="#8dd3c7" stroke="black" points="152.27,-122 149.27,-126 128.27,-126 125.27,-122 23.73,-122 23.73,-86 152.27,-86 152.27,-122"/>
<text text-anchor="middle" x="88" y="-99.8" font-family="Times,serif" font-size="14.00">AppRoutingModule</text>
</g>
<!-- AppRoutingModule&#45;&gt;AppModule -->
<g id="edge6" class="edge">
<title>AppRoutingModule&#45;&gt;AppModule</title>
<path fill="none" stroke="black" d="M88,-122.28C88,-143.32 88,-175 88,-175 88,-175 478.02,-175 478.02,-175"/>
<polygon fill="black" stroke="black" points="478.02,-178.5 488.02,-175 478.02,-171.5 478.02,-178.5"/>
</g>
</g>
</svg>
