<?xml version="1.0" encoding="UTF-8" standalone="no"?>
<!DOCTYPE svg PUBLIC "-//W3C//DTD SVG 1.1//EN"
 "http://www.w3.org/Graphics/SVG/1.1/DTD/svg11.dtd">
<!-- Generated by graphviz version 5.0.0 (20220707.1540)
 -->
<!-- Title: dependencies Pages: 1 -->
<svg width="1030pt" height="247pt"
 viewBox="0.00 0.00 1030.00 246.80" xmlns="http://www.w3.org/2000/svg" xmlns:xlink="http://www.w3.org/1999/xlink">
<g id="graph0" class="graph" transform="scale(1 1) rotate(0) translate(4 242.8)">
<title>dependencies</title>
<polygon fill="white" stroke="transparent" points="-4,4 -4,-242.8 1026,-242.8 1026,4 -4,4"/>
<text text-anchor="middle" x="511" y="-8.2" font-family="sans-serif" font-size="14.00">dependencies</text>
<g id="clust1" class="cluster">
<title>cluster_AppModule</title>
<polygon fill="none" stroke="black" stroke-dasharray="1,5" points="8,-32.8 8,-230.8 1014,-230.8 1014,-32.8 8,-32.8"/>
</g>
<g id="clust2" class="cluster">
<title>cluster_AppModule_declarations</title>
<polygon fill="none" stroke="black" points="168,-40.8 168,-92.8 1006,-92.8 1006,-40.8 168,-40.8"/>
</g>
<g id="clust8" class="cluster">
<title>cluster_AppModule_imports</title>
<polygon fill="none" stroke="black" points="16,-40.8 16,-92.8 160,-92.8 160,-40.8 16,-40.8"/>
</g>
<g id="clust10" class="cluster">
<title>cluster_AppModule_bootstrap</title>
<polygon fill="none" stroke="black" points="468,-170.8 468,-222.8 592,-222.8 592,-170.8 468,-170.8"/>
</g>
<!-- AppComponent -->
<g id="node1" class="node">
<title>AppComponent</title>
<polygon fill="#ffffb3" stroke="black" points="997.94,-84.8 892.06,-84.8 892.06,-48.8 997.94,-48.8 997.94,-84.8"/>
<text text-anchor="middle" x="945" y="-62.6" font-family="Times,serif" font-size="14.00">AppComponent</text>
</g>
<!-- AppModule -->
<g id="node6" class="node">
<title>AppModule</title>
<polygon fill="#8dd3c7" stroke="black" points="571.66,-149.8 568.66,-153.8 547.66,-153.8 544.66,-149.8 488.34,-149.8 488.34,-113.8 571.66,-113.8 571.66,-149.8"/>
<text text-anchor="middle" x="530" y="-127.6" font-family="Times,serif" font-size="14.00">AppModule</text>
</g>
<!-- AppComponent&#45;&gt;AppModule -->
<g id="edge1" class="edge">
<title>AppComponent&#45;&gt;AppModule</title>
<path fill="none" stroke="black" d="M945,-85.08C945,-106.12 945,-137.8 945,-137.8 945,-137.8 581.69,-137.8 581.69,-137.8"/>
<polygon fill="black" stroke="black" points="581.69,-134.3 571.69,-137.8 581.69,-141.3 581.69,-134.3"/>
</g>
<!-- FrequenciesBarComponent -->
<g id="node2" class="node">
<title>FrequenciesBarComponent</title>
<polygon fill="#ffffb3" stroke="black" points="874.69,-84.8 705.31,-84.8 705.31,-48.8 874.69,-48.8 874.69,-84.8"/>
<text text-anchor="middle" x="790" y="-62.6" font-family="Times,serif" font-size="14.00">FrequenciesBarComponent</text>
</g>
<!-- FrequenciesBarComponent&#45;&gt;AppModule -->
<g id="edge2" class="edge">
<title>FrequenciesBarComponent&#45;&gt;AppModule</title>
<path fill="none" stroke="black" d="M790,-84.82C790,-102.17 790,-125.8 790,-125.8 790,-125.8 581.77,-125.8 581.77,-125.8"/>
<polygon fill="black" stroke="black" points="581.77,-122.3 571.77,-125.8 581.77,-129.3 581.77,-122.3"/>
</g>
<!-- HomePageComponent -->
<g id="node3" class="node">
<title>HomePageComponent</title>
<polygon fill="#ffffb3" stroke="black" points="687.26,-84.8 544.74,-84.8 544.74,-48.8 687.26,-48.8 687.26,-84.8"/>
<text text-anchor="middle" x="616" y="-62.6" font-family="Times,serif" font-size="14.00">HomePageComponent</text>
</g>
<!-- HomePageComponent&#45;&gt;AppModule -->
<g id="edge3" class="edge">
<title>HomePageComponent&#45;&gt;AppModule</title>
<path fill="none" stroke="black" d="M558.23,-84.91C558.23,-84.91 558.23,-103.79 558.23,-103.79"/>
<polygon fill="black" stroke="black" points="554.73,-103.79 558.23,-113.79 561.73,-103.79 554.73,-103.79"/>
</g>
<!-- NotFoundPageComponent -->
<g id="node4" class="node">
<title>NotFoundPageComponent</title>
<polygon fill="#ffffb3" stroke="black" points="526.83,-84.8 361.17,-84.8 361.17,-48.8 526.83,-48.8 526.83,-84.8"/>
<text text-anchor="middle" x="444" y="-62.6" font-family="Times,serif" font-size="14.00">NotFoundPageComponent</text>
</g>
<!-- NotFoundPageComponent&#45;&gt;AppModule -->
<g id="edge4" class="edge">
<title>NotFoundPageComponent&#45;&gt;AppModule</title>
<path fill="none" stroke="black" d="M507.42,-84.91C507.42,-84.91 507.42,-103.79 507.42,-103.79"/>
<polygon fill="black" stroke="black" points="503.92,-103.79 507.42,-113.79 510.92,-103.79 503.92,-103.79"/>
</g>
<!-- SpectrumPagesComponent -->
<g id="node5" class="node">
<title>SpectrumPagesComponent</title>
<polygon fill="#ffffb3" stroke="black" points="343.65,-84.8 176.35,-84.8 176.35,-48.8 343.65,-48.8 343.65,-84.8"/>
<text text-anchor="middle" x="260" y="-62.6" font-family="Times,serif" font-size="14.00">SpectrumPagesComponent</text>
</g>
<!-- SpectrumPagesComponent&#45;&gt;AppModule -->
<g id="edge5" class="edge">
<title>SpectrumPagesComponent&#45;&gt;AppModule</title>
<path fill="none" stroke="black" d="M260,-84.82C260,-102.17 260,-125.8 260,-125.8 260,-125.8 478.11,-125.8 478.11,-125.8"/>
<polygon fill="black" stroke="black" points="478.11,-129.3 488.11,-125.8 478.11,-122.3 478.11,-129.3"/>
</g>
<!-- AppComponent  -->
<g id="node8" class="node">
<title>AppComponent </title>
<polygon fill="#80b1d3" stroke="black" points="584.44,-214.8 475.56,-214.8 475.56,-178.8 584.44,-178.8 584.44,-214.8"/>
<text text-anchor="middle" x="530" y="-192.6" font-family="Times,serif" font-size="14.00">AppComponent </text>
</g>
<!-- AppModule&#45;&gt;AppComponent  -->
<g id="edge7" class="edge">
<title>AppModule&#45;&gt;AppComponent </title>
<path fill="none" stroke="black" stroke-dasharray="1,5" d="M530,-149.91C530,-149.91 530,-168.79 530,-168.79"/>
<polygon fill="black" stroke="black" points="526.5,-168.79 530,-178.79 533.5,-168.79 526.5,-168.79"/>
</g>
<!-- AppRoutingModule -->
<g id="node7" class="node">
<title>AppRoutingModule</title>
<polygon fill="#8dd3c7" stroke="black" points="152.28,-84.8 149.28,-88.8 128.28,-88.8 125.28,-84.8 23.72,-84.8 23.72,-48.8 152.28,-48.8 152.28,-84.8"/>
<text text-anchor="middle" x="88" y="-62.6" font-family="Times,serif" font-size="14.00">AppRoutingModule</text>
</g>
<!-- AppRoutingModule&#45;&gt;AppModule -->
<g id="edge6" class="edge">
<title>AppRoutingModule&#45;&gt;AppModule</title>
<path fill="none" stroke="black" d="M88,-85.08C88,-106.12 88,-137.8 88,-137.8 88,-137.8 478.02,-137.8 478.02,-137.8"/>
<polygon fill="black" stroke="black" points="478.02,-141.3 488.02,-137.8 478.02,-134.3 478.02,-141.3"/>
</g>
</g>
</svg>
